<?xml version="1.0" encoding="utf-8"?>
<!-- Generator: Adobe Illustrator 18.1.1, SVG Export Plug-In . SVG Version: 6.00 Build 0)  -->
<svg version="1.1" xmlns="http://www.w3.org/2000/svg" xmlns:xlink="http://www.w3.org/1999/xlink" x="0px" y="0px"
	 viewBox="0 0 200 50" enable-background="new 0 0 200 50" xml:space="preserve">
<g id="Layer_2">
	<g>
		<circle fill="none" stroke="#FF9900" stroke-miterlimit="10" cx="73.5" cy="24" r="14"/>
		<path fill="none" stroke="#FF9900" stroke-miterlimit="10" d="M73,15"/>
		<path fill="none" stroke="#FF9900" stroke-miterlimit="10" d="M82.2,24.5c0-5-4.2-9.5-9.2-9.5"/>
		<path fill="none" stroke="#FF9900" stroke-miterlimit="10" d="M82.2,24.5"/>
		<polygon fill="#FF9900" stroke="#FF9900" stroke-miterlimit="10" points="82.5,36 91.5,45 93.5,43 84.5,33 		"/>
		<line opacity="0.5" fill="none" stroke="#FF9900" stroke-miterlimit="10" x1="57.5" y1="9" x2="82.5" y2="34"/>
		<line opacity="0.5" fill="none" stroke="#FF9900" stroke-miterlimit="10" x1="51.5" y1="28" x2="98.5" y2="21"/>
		<g>
			<g>
				<line fill="none" stroke="#FF9900" stroke-miterlimit="10" x1="75.8" y1="2" x2="75.7" y2="3"/>
				
					<line fill="none" stroke="#FF9900" stroke-miterlimit="10" stroke-dasharray="9.631228e-003,0,0,0" x1="75.5" y1="4.9" x2="75.5" y2="4.9"/>
				
					<line fill="none" stroke="#FF9900" stroke-miterlimit="10" stroke-dasharray="1.9262,1.9166,9.631228e-003,0,0,0" x1="75.5" y1="4.9" x2="70.6" y2="47"/>
				<line fill="none" stroke="#FF9900" stroke-miterlimit="10" x1="70.6" y1="47" x2="70.5" y2="48"/>
			</g>
		</g>
	</g>
</g>
<g id="Layer_3">
	<g>
		<circle fill="none" stroke="#FF9900" stroke-miterlimit="10" cx="25" cy="25" r="9.5"/>
		
			<line fill="none" stroke="#FF9900" stroke-miterlimit="10" stroke-dasharray="1,1,0,0,0,0" x1="32.5" y1="6.5" x2="16.5" y2="45.5"/>
		
			<line fill="none" stroke="#FF9900" stroke-miterlimit="10" stroke-dasharray="1,1,0,0,0,0" x1="16.5" y1="5.5" x2="33.5" y2="45.5"/>
		
			<line fill="none" stroke="#FF9900" stroke-miterlimit="10" stroke-dasharray="1,1,0,0,0,0" x1="5.5" y1="16.5" x2="44.5" y2="33.5"/>
		
			<line fill="none" stroke="#FF9900" stroke-miterlimit="10" stroke-dasharray="1,1,0,0,0,0" x1="4.5" y1="33.5" x2="44.5" y2="16.5"/>
		<rect x="24.3" y="3.5" fill="#FF9900" width="1.2" height="6"/>
		<rect x="24.3" y="40.5" fill="#FF9900" width="1.2" height="6"/>
		<rect x="11.5" y="35" transform="matrix(0.7071 0.7071 -0.7071 0.7071 30.3708 2.6109)" fill="#FF9900" width="1.2" height="6"/>
		<rect x="40.5" y="24.3" fill="#FF9900" width="6" height="1.2"/>
		
			<rect x="37.4" y="9" transform="matrix(-0.7071 -0.7071 0.7071 -0.7071 56.3032 47.3891)" fill="#FF9900" width="1.2" height="6"/>
		<rect x="37.5" y="35" transform="matrix(0.7071 -0.7071 0.7071 0.7071 -15.7063 38.014)" fill="#FF9900" width="1.2" height="6"/>
		<rect x="3.5" y="24.4" fill="#FF9900" width="6" height="1.2"/>
		<rect x="11.5" y="9" transform="matrix(0.7071 -0.7071 0.7071 0.7071 -4.9846 12.0338)" fill="#FF9900" width="1.2" height="6"/>
	</g>
</g>
<g id="Layer_4">
	<g>
		
			<line fill="none" stroke="#FF9900" stroke-miterlimit="10" stroke-dasharray="3,1,0,0,0,0" x1="124.5" y1="13" x2="124.5" y2="47"/>
		
			<line fill="none" stroke="#FF9900" stroke-miterlimit="10" stroke-dasharray="2,2,0,0,0,0" x1="108.5" y1="21" x2="138.4" y2="31"/>
		
			<line fill="none" stroke="#FF9900" stroke-miterlimit="10" stroke-dasharray="2,2,0,0,0,0" x1="112.5" y1="31" x2="141.4" y2="21"/>
		<polyline fill="none" stroke="#FF9900" stroke-miterlimit="10" points="124.3,19.5 114.4,13 107.4,22.1 111.5,31.3 124.5,40.5 
			125.5,40.5 138.5,31 142.5,21 135.4,13 125.5,19.5 124,19.5 		"/>
		<line fill="none" stroke="#FF9900" stroke-miterlimit="10" x1="120.5" y1="45" x2="124.5" y2="42"/>
		<line fill="none" stroke="#FF9900" stroke-miterlimit="10" x1="124.5" y1="42" x2="128.5" y2="45"/>
		<line fill="none" stroke="#FF9900" stroke-miterlimit="10" x1="120.5" y1="48" x2="124.5" y2="45"/>
		<line fill="none" stroke="#FF9900" stroke-miterlimit="10" x1="124.5" y1="45" x2="128.5" y2="48"/>
		<path fill="#FF9900" stroke="#FF9900" stroke-miterlimit="10" d="M121.5,13"/>
		<path fill="#FF9900" stroke="#FF9900" stroke-miterlimit="10" d="M121.5,13"/>
		<path fill="#FF9900" stroke="#FF9900" stroke-miterlimit="10" d="M125.5,2"/>
		<path fill="none" stroke="#FF9900" stroke-miterlimit="10" d="M121.5,13"/>
		<polyline fill="#FF9900" stroke="#FF9900" stroke-miterlimit="10" points="121,13 124,2.5 125,2.5 128,13 125,12.5 124,12.5 
			121,13 		"/>
	</g>
</g>
<g id="Layer_5">
	<g>
		<line fill="none" stroke="#FF9900" stroke-miterlimit="10" x1="161" y1="11.5" x2="188" y2="11.5"/>
		<line fill="none" stroke="#FF9900" stroke-miterlimit="10" x1="187.7" y1="11" x2="192.6" y2="20"/>
		<line fill="none" stroke="#FF9900" stroke-miterlimit="10" x1="192.6" y1="20" x2="174" y2="39"/>
		<line fill="none" stroke="#FF9900" stroke-miterlimit="10" x1="174.1" y1="39" x2="155.6" y2="20"/>
		<line fill="none" stroke="#FF9900" stroke-miterlimit="10" x1="155.3" y1="20" x2="160.7" y2="11.5"/>
		<line opacity="0.5" fill="none" stroke="#FF9900" stroke-miterlimit="10" x1="160.7" y1="12" x2="166.7" y2="19"/>
		<line opacity="0.5" fill="none" stroke="#FF9900" stroke-miterlimit="10" x1="165.7" y1="19" x2="173.7" y2="12"/>
		<line opacity="0.5" fill="none" stroke="#FF9900" stroke-miterlimit="10" x1="173.7" y1="12" x2="181.7" y2="19"/>
		<line opacity="0.5" fill="none" stroke="#FF9900" stroke-miterlimit="10" x1="181.7" y1="19" x2="187.7" y2="12"/>
		<line opacity="0.5" fill="none" stroke="#FF9900" stroke-miterlimit="10" x1="156" y1="19.5" x2="192" y2="19.5"/>
		<line opacity="0.5" fill="none" stroke="#FF9900" stroke-miterlimit="10" x1="166.7" y1="20" x2="173.7" y2="38"/>
		<line opacity="0.5" fill="none" stroke="#FF9900" stroke-miterlimit="10" x1="181.7" y1="19" x2="173.7" y2="38"/>
		<line fill="none" stroke="#FF9900" stroke-width="2" stroke-miterlimit="10" x1="158.7" y1="31" x2="193.7" y2="13"/>
		<line fill="none" stroke="#FF9900" stroke-width="2" stroke-miterlimit="10" x1="192.7" y1="11" x2="194.7" y2="15"/>
		<line fill="none" stroke="#FF9900" stroke-width="2" stroke-miterlimit="10" x1="156.7" y1="30" x2="158.7" y2="34"/>
	</g>
</g>
</svg>
